<svg width="35" height="32" viewBox="0 0 35 32" fill="none" xmlns="http://www.w3.org/2000/svg">
<path fill-rule="evenodd" clip-rule="evenodd" d="M27.02 5.91371C27.09 6.03607 27.2125 6.12347 27.37 6.12347C31.57 6.12347 35 9.54967 35 13.745V24.1285C35 28.3238 31.57 31.75 27.37 31.75H7.63C3.4125 31.75 0 28.3238 0 24.1285V13.745C0 9.54967 3.4125 6.12347 7.63 6.12347C7.77 6.12347 7.91 6.05355 7.9625 5.91371L8.0675 5.70394C8.12781 5.57699 8.18972 5.4466 8.25256 5.31423C8.70027 4.37122 9.19558 3.32792 9.5025 2.71476C10.3075 1.14151 11.6725 0.267481 13.37 0.25H21.6125C23.31 0.267481 24.6925 1.14151 25.4975 2.71476C25.7731 3.26535 26.193 4.15221 26.5977 5.00703C26.6812 5.18351 26.7641 5.35863 26.845 5.52913L27.02 5.91371ZM25.7425 12.6262C25.7425 13.5003 26.4425 14.1995 27.3175 14.1995C28.1925 14.1995 28.91 13.5003 28.91 12.6262C28.91 11.7522 28.1925 11.0355 27.3175 11.0355C26.4425 11.0355 25.7425 11.7522 25.7425 12.6262ZM14.4725 15.3358C15.295 14.5142 16.3625 14.0772 17.5 14.0772C18.6375 14.0772 19.705 14.5142 20.51 15.3183C21.315 16.1224 21.7525 17.1887 21.7525 18.3249C21.735 20.6673 19.845 22.5727 17.5 22.5727C16.3625 22.5727 15.295 22.1357 14.49 21.3316C13.685 20.5275 13.2475 19.4612 13.2475 18.3249V18.3075C13.23 17.2062 13.6675 16.1399 14.4725 15.3358ZM22.3475 23.1845C21.105 24.4256 19.39 25.1948 17.5 25.1948C15.6625 25.1948 13.9475 24.4781 12.635 23.1845C11.34 21.8735 10.6225 20.1604 10.6225 18.3249C10.605 16.5069 11.3225 14.7938 12.6175 13.4828C13.93 12.1718 15.6625 11.4551 17.5 11.4551C19.3375 11.4551 21.07 12.1718 22.365 13.4653C23.66 14.7764 24.3775 16.5069 24.3775 18.3249C24.36 20.2303 23.59 21.9434 22.3475 23.1845Z" fill="#7E9BFF"/>
</svg>
