<svg width="160" height="49" viewBox="0 0 160 49" fill="none" xmlns="http://www.w3.org/2000/svg">
<path fill-rule="evenodd" clip-rule="evenodd" d="M24.3194 3.782C22.4166 3.782 21.5949 5.90109 21.5949 5.90109C21.5949 5.90109 20.7732 7.84719 19.9948 11.3502C18.8704 16.1938 17.7027 23.0701 17.6594 24.8432C16.362 21.7294 13.6807 9.36083 13.205 6.76603C12.8158 4.69018 11.2157 4.69018 11.2157 4.69018C8.1884 5.12265 6.28554 10.096 6.19905 20.1725C6.11255 29.9031 8.66411 40.9742 9.44255 42.8771C10.221 44.8232 11.8211 43.915 11.8211 43.915C12.9023 43.2231 13.032 42.3581 12.8158 40.8877C12.5996 39.3741 11.9509 35.9144 11.3454 31.5464C10.6967 26.919 10.4372 20.3888 10.9994 17.5345C12.5996 25.8811 17.0107 34.9197 18.0487 37.0388C18.7406 38.4659 19.9948 38.9416 21.2057 37.774C22.2868 36.6928 21.7679 34.7034 21.8976 31.2005C22.0274 26.7028 22.4598 20.6482 23.2815 17.9669C24.233 25.4919 26.7413 32.1519 27.217 33.4493C27.7792 34.8764 28.8171 35.1792 29.6388 34.9197C30.893 34.5305 30.9795 33.6655 31.1092 32.4114C31.2389 31.1572 32.1471 26.573 32.1471 26.573C32.9688 22.3349 33.9202 19.4806 35.0014 17.4912C35.1744 22.6808 36.515 30.1625 36.9475 31.8059C37.38 33.4925 37.7692 34.3142 38.8504 34.3142C40.2343 34.3575 40.6235 32.9736 40.6235 32.9736C40.6235 32.9736 42.4398 27.5245 43.6075 24.6269C44.9914 21.1672 47.2402 18.0102 48.9701 16.0641C50.3973 14.464 50.9162 12.4746 48.7971 12.3449C47.37 12.2584 45.6401 13.7288 43.694 16.3236C41.7479 18.9184 40.2775 21.8592 39.6288 23.7188C39.1098 20.778 38.7639 11.5664 38.7639 11.5664C38.7639 11.5664 38.4611 8.62564 38.2017 8.06343C37.553 6.72278 35.5204 6.54979 34.223 8.27966C32.9256 10.0528 31.3254 14.2477 31.3254 14.2477C30.547 15.9776 29.0766 21.0375 28.7739 22.4646C28.6441 22.1186 27.9089 18.8319 27.39 15.5884C26.7845 11.6529 26.525 7.50122 26.4818 6.33356C26.4385 4.17122 24.8384 3.82524 24.8384 3.82524C24.6222 3.782 24.4924 3.782 24.3194 3.782Z" fill="url(#paint0_linear)"/>
<path fill-rule="evenodd" clip-rule="evenodd" d="M65.5352 16.0628V26.2925H63.6524V17.569H60.8283V20.3304C60.8283 22.778 60.5773 25.0373 59.071 25.9159C58.6317 26.167 57.9414 26.418 57.251 26.418L57 24.9118C57.4393 24.849 57.8786 24.598 58.1297 24.3469C58.82 23.6566 58.9455 22.0249 58.9455 20.3931V16H65.5352V16.0628Z" fill="#2C2B43"/>
<path fill-rule="evenodd" clip-rule="evenodd" d="M69.4262 16.0628V19.7028C69.4262 21.3345 69.3634 22.8407 69.3007 24.2214C69.8027 23.0918 70.4931 21.8366 71.1834 20.7069L73.8821 16.1255H75.7649V26.3552H74.0076V22.7152C74.0076 21.0835 74.0076 19.7656 74.1331 18.4476C73.631 19.64 72.9407 20.8952 72.3131 21.9621L69.74 26.2925H67.6689V16.0628H69.4262Z" fill="#2C2B43"/>
<path fill-rule="evenodd" clip-rule="evenodd" d="M81.0367 19.2007C81.0367 20.5814 80.9112 21.8366 80.5346 22.9663C80.3464 23.6566 80.0326 24.2842 79.7815 24.7863H83.6726V17.569H81.0367V19.2007ZM85.5554 16.0628V24.849L86.5595 24.9118L86.434 28.8656H84.9905L84.865 26.3552H78.6519L78.5264 28.8656H77.0829L77.0201 24.9118L77.836 24.849C78.2126 24.1587 78.5891 23.4056 78.8401 22.5897C79.1539 21.5228 79.2795 20.2676 79.2795 18.7614V16.0628H85.5554Z" fill="#2C2B43"/>
<path fill-rule="evenodd" clip-rule="evenodd" d="M93.7768 21.7111H89.8857V24.7235H94.2161V26.2925H88.0029V16.0628H93.965V17.569H89.8857V20.2049H93.7768V21.7111Z" fill="#2C2B43"/>
<path fill-rule="evenodd" clip-rule="evenodd" d="M97.7307 20.958C97.9817 21.0207 98.2328 21.0207 98.6721 21.0207C100.053 21.0207 100.931 20.3304 100.931 19.1379C100.931 18.0083 100.116 17.3807 98.8604 17.3807C98.3583 17.3807 97.9817 17.4435 97.7935 17.4435V20.958H97.7307ZM95.8479 16.1883C96.5383 16.0628 97.4169 16 98.7348 16C100.116 16 101.12 16.3138 101.747 16.8159C102.375 17.3179 102.751 18.1338 102.751 19.0752C102.751 20.0793 102.438 20.8324 101.873 21.3973C101.12 22.1504 99.9272 22.4642 98.6093 22.4642C98.2328 22.4642 97.919 22.4642 97.6679 22.4014V26.2925H95.7852V16.1883H95.8479Z" fill="#2C2B43"/>
<path fill-rule="evenodd" clip-rule="evenodd" d="M115.856 22.0876C115.793 20.7697 115.73 19.1379 115.73 17.7572H115.668C115.354 19.0124 114.915 20.3931 114.475 21.7111L112.969 26.1669H111.526L110.145 21.7738C109.768 20.4559 109.392 19.0752 109.141 17.82C109.078 19.1379 109.015 20.7697 108.953 22.2131L108.701 26.3552H106.944L107.635 16.1255H110.082L111.4 20.2676C111.777 21.46 112.09 22.7152 112.341 23.8449H112.404C112.655 22.7152 113.032 21.46 113.408 20.2676L114.852 16.1883H117.299L117.864 26.418H116.044L115.856 22.0876Z" fill="#2C2B43"/>
<path fill-rule="evenodd" clip-rule="evenodd" d="M125.458 21.7111H121.63V24.7235H125.96V26.2925H119.747V16H125.709V17.569H121.63V20.2048H125.458V21.7111Z" fill="#2C2B43"/>
<path fill-rule="evenodd" clip-rule="evenodd" d="M130.918 19.2007C130.918 20.5814 130.793 21.8366 130.416 22.9662C130.228 23.6566 129.914 24.2842 129.663 24.7863H133.554V17.569H130.918V19.2007ZM135.437 16V24.7863L136.441 24.849L136.315 28.8028H134.872L134.746 26.2925H128.533L128.408 28.8028H126.964L126.902 24.849L127.717 24.7863C128.094 24.0959 128.471 23.3428 128.722 22.5269C129.035 21.46 129.161 20.2049 129.161 18.6986V16H135.437Z" fill="#2C2B43"/>
<path fill-rule="evenodd" clip-rule="evenodd" d="M139.642 16V19.64C139.642 21.2718 139.579 22.778 139.516 24.1587C140.018 23.029 140.709 21.7738 141.399 20.6442L144.098 16.0628H145.98V26.2925H144.223V22.6524C144.223 21.0207 144.223 19.7028 144.349 18.3848C143.847 19.5773 143.156 20.8324 142.529 21.8993L139.955 26.2297H137.884V16H139.642Z" fill="#2C2B43"/>
<path fill-rule="evenodd" clip-rule="evenodd" d="M153.135 21.9621L152.319 19.4517C152.131 18.8242 151.942 18.1338 151.817 17.5062C151.691 18.071 151.503 18.8242 151.315 19.4517L150.499 21.9621H153.135ZM150.185 23.3428L149.306 26.2297H147.361L150.624 16H153.009L156.335 26.2297H154.327L153.386 23.3428H150.185Z" fill="#2C2B43"/>
<defs>
<linearGradient id="paint0_linear" x1="4.67373" y1="23.9574" x2="54.579" y2="23.9574" gradientUnits="userSpaceOnUse">
<stop stop-color="#EF8B05"/>
<stop offset="1" stop-color="#E3097E"/>
</linearGradient>
</defs>
</svg>
