<svg width="32" height="36" viewBox="0 0 32 36" fill="none" xmlns="http://www.w3.org/2000/svg">
<path fill-rule="evenodd" clip-rule="evenodd" d="M15.6884 35.3484C15.8942 35.4497 16.1243 35.5011 16.3545 35.4994C16.5846 35.4977 16.8129 35.4445 17.0206 35.3416L23.6517 32.0038C25.5321 31.06 27.0047 30.0046 28.1535 28.7759C30.6514 26.0989 32.0154 22.6822 31.9911 19.1591L31.9125 7.53798C31.905 6.19946 30.9714 5.00508 29.5905 4.57092L17.2545 0.673749C16.5117 0.436933 15.6977 0.442081 14.968 0.685761L2.67876 4.72193C1.30539 5.17325 0.388557 6.37621 0.396042 7.71645L0.474627 19.329C0.498951 22.8572 1.90975 26.2585 4.4488 28.9081C5.60887 30.1196 7.09451 31.1595 8.99553 32.0879L15.6884 35.3484ZM13.9329 21.6901C14.2099 21.9407 14.5691 22.0642 14.9284 22.0608C15.2876 22.0591 15.645 21.9321 15.9182 21.6781L23.1649 14.9512C23.7093 14.4449 23.7037 13.6315 23.1536 13.1322C22.6017 12.6328 21.7129 12.6362 21.1684 13.1425L14.9078 18.953L12.3444 16.6329C11.7924 16.1335 10.9055 16.1387 10.3592 16.6449C9.8147 17.1512 9.82032 17.9646 10.3723 18.464L13.9329 21.6901Z" fill="#7E9BFF"/>
</svg>
