<svg width="34" height="32" viewBox="0 0 34 32" fill="none" xmlns="http://www.w3.org/2000/svg">
<path fill-rule="evenodd" clip-rule="evenodd" d="M12.3176 29.9473L28.6476 10.063C29.5351 8.99067 29.8506 7.75096 29.5548 6.48867C29.2984 5.34114 28.549 4.25004 27.4248 3.42231L24.6834 1.3718C22.297 -0.415344 19.3387 -0.227223 17.6426 1.82329L15.8084 4.0638C15.5717 4.3441 15.6309 4.75796 15.9267 4.98371C15.9267 4.98371 20.5615 8.48274 20.6601 8.55799C20.9756 8.84017 21.2123 9.21641 21.2715 9.6679C21.3701 10.5521 20.7192 11.3798 19.7528 11.4927C19.2992 11.5491 18.8653 11.4174 18.5498 11.1729L13.6784 7.52333C13.4417 7.3559 13.0867 7.39165 12.8895 7.61739L1.31258 21.7264C0.563131 22.6106 0.306742 23.7581 0.563131 24.868L2.0423 30.9067C2.12119 31.2265 2.41702 31.4522 2.77202 31.4522L9.28035 31.377C10.4637 31.3582 11.5681 30.8502 12.3176 29.9473ZM21.4306 28.0666H32.0431C33.0786 28.0666 33.9207 28.8699 33.9207 29.8575C33.9207 30.847 33.0786 31.6484 32.0431 31.6484H21.4306C20.3952 31.6484 19.5531 30.847 19.5531 29.8575C19.5531 28.8699 20.3952 28.0666 21.4306 28.0666Z" fill="#7E9BFF"/>
</svg>
