<svg width="80" height="31" viewBox="0 0 80 31" fill="none" xmlns="http://www.w3.org/2000/svg">
<path d="M0.46789 0.880732H3.77064V21.1266H16.2881V24H0.46789V0.880732ZM26.8871 24.1982C25.1476 24.1982 23.5843 23.8128 22.1972 23.0422C20.81 22.2716 19.7201 21.2147 18.9274 19.8716C18.1568 18.5064 17.7715 16.9651 17.7715 15.2477C17.7715 13.5303 18.1568 12 18.9274 10.6569C19.7201 9.29174 20.81 8.23486 22.1972 7.48624C23.5843 6.7156 25.1476 6.33027 26.8871 6.33027C28.6265 6.33027 30.1788 6.7156 31.544 7.48624C32.9311 8.23486 34.01 9.29174 34.7806 10.6569C35.5733 12 35.9696 13.5303 35.9696 15.2477C35.9696 16.9651 35.5733 18.5064 34.7806 19.8716C34.01 21.2147 32.9311 22.2716 31.544 23.0422C30.1788 23.8128 28.6265 24.1982 26.8871 24.1982ZM26.8871 21.4239C28.01 21.4239 29.0118 21.1706 29.8926 20.6642C30.7953 20.1358 31.4999 19.4092 32.0063 18.4844C32.5128 17.5376 32.766 16.4587 32.766 15.2477C32.766 14.0367 32.5128 12.9688 32.0063 12.044C31.4999 11.0972 30.7953 10.3706 29.8926 9.86422C29.0118 9.3578 28.01 9.10459 26.8871 9.10459C25.7641 9.10459 24.7513 9.3578 23.8485 9.86422C22.9678 10.3706 22.2632 11.0972 21.7348 12.044C21.2284 12.9688 20.9751 14.0367 20.9751 15.2477C20.9751 16.4587 21.2284 17.5376 21.7348 18.4844C22.2632 19.4092 22.9678 20.1358 23.8485 20.6642C24.7513 21.1706 25.7641 21.4239 26.8871 21.4239ZM57.0995 6.49541V21.622C57.0995 24.6826 56.3399 26.9394 54.8206 28.3927C53.3013 29.8679 51.0335 30.6055 48.0169 30.6055C46.3656 30.6055 44.7913 30.3743 43.294 29.9119C41.7968 29.4716 40.5857 28.833 39.661 27.9963L41.1802 25.5523C41.9949 26.2569 42.9968 26.8073 44.1858 27.2037C45.3968 27.622 46.6408 27.8312 47.9179 27.8312C49.9656 27.8312 51.4738 27.3468 52.4426 26.378C53.4335 25.4092 53.9289 23.9339 53.9289 21.9523V20.5651C53.1802 21.4679 52.2555 22.1505 51.1546 22.6128C50.0757 23.0532 48.8977 23.2734 47.6206 23.2734C45.9472 23.2734 44.428 22.9211 43.0628 22.2165C41.7197 21.4899 40.6628 20.4881 39.8922 19.211C39.1215 17.9119 38.7362 16.4367 38.7362 14.7853C38.7362 13.1339 39.1215 11.6697 39.8922 10.3927C40.6628 9.09358 41.7197 8.09174 43.0628 7.38716C44.428 6.68257 45.9472 6.33027 47.6206 6.33027C48.9417 6.33027 50.1637 6.57248 51.2867 7.05688C52.4316 7.54128 53.3674 8.25688 54.094 9.20367V6.49541H57.0995ZM47.9839 20.4991C49.1289 20.4991 50.1527 20.2569 51.0555 19.7725C51.9802 19.2881 52.6958 18.6165 53.2023 17.7578C53.7307 16.8771 53.9949 15.8862 53.9949 14.7853C53.9949 13.0899 53.4335 11.7248 52.3105 10.6899C51.1876 9.63303 49.7454 9.10459 47.9839 9.10459C46.2004 9.10459 44.7472 9.63303 43.6243 10.6899C42.5013 11.7248 41.9399 13.0899 41.9399 14.7853C41.9399 15.8862 42.1931 16.8771 42.6995 17.7578C43.228 18.6165 43.9435 19.2881 44.8463 19.7725C45.7711 20.2569 46.8169 20.4991 47.9839 20.4991ZM70.655 24.1982C68.9155 24.1982 67.3522 23.8128 65.9651 23.0422C64.5779 22.2716 63.488 21.2147 62.6954 19.8716C61.9247 18.5064 61.5394 16.9651 61.5394 15.2477C61.5394 13.5303 61.9247 12 62.6954 10.6569C63.488 9.29174 64.5779 8.23486 65.9651 7.48624C67.3522 6.7156 68.9155 6.33027 70.655 6.33027C72.3944 6.33027 73.9467 6.7156 75.3119 7.48624C76.699 8.23486 77.7779 9.29174 78.5486 10.6569C79.3412 12 79.7376 13.5303 79.7376 15.2477C79.7376 16.9651 79.3412 18.5064 78.5486 19.8716C77.7779 21.2147 76.699 22.2716 75.3119 23.0422C73.9467 23.8128 72.3944 24.1982 70.655 24.1982ZM70.655 21.4239C71.7779 21.4239 72.7798 21.1706 73.6605 20.6642C74.5632 20.1358 75.2678 19.4092 75.7743 18.4844C76.2807 17.5376 76.5339 16.4587 76.5339 15.2477C76.5339 14.0367 76.2807 12.9688 75.7743 12.044C75.2678 11.0972 74.5632 10.3706 73.6605 9.86422C72.7798 9.3578 71.7779 9.10459 70.655 9.10459C69.5321 9.10459 68.5192 9.3578 67.6165 9.86422C66.7357 10.3706 66.0311 11.0972 65.5027 12.044C64.9963 12.9688 64.7431 14.0367 64.7431 15.2477C64.7431 16.4587 64.9963 17.5376 65.5027 18.4844C66.0311 19.4092 66.7357 20.1358 67.6165 20.6642C68.5192 21.1706 69.5321 21.4239 70.655 21.4239Z" fill="#2C2B43"/>
</svg>
