<svg width="32" height="36" viewBox="0 0 32 36" fill="none" xmlns="http://www.w3.org/2000/svg">
<path fill-rule="evenodd" clip-rule="evenodd" d="M10.089 25.5809H20.0995C20.854 25.5809 21.4796 24.9859 21.4796 24.2684C21.4796 23.5509 20.854 22.9735 20.0995 22.9735H10.089C9.33458 22.9735 8.70893 23.5509 8.70893 24.2684C8.70893 24.9859 9.33458 25.5809 10.089 25.5809ZM16.3088 14.2234H10.089C9.33458 14.2234 8.70893 14.8184 8.70893 15.5359C8.70893 16.2534 9.33458 16.8309 10.089 16.8309H16.3088C17.0632 16.8309 17.6889 16.2534 17.6889 15.5359C17.6889 14.8184 17.0632 14.2234 16.3088 14.2234ZM29.441 12.6933C29.8735 12.6886 30.3445 12.6834 30.7724 12.6834C31.2324 12.6834 31.6005 13.0334 31.6005 13.4709V27.541C31.6005 31.881 27.9018 35.3985 23.3382 35.3985H8.69054C3.90614 35.3985 0.00500488 31.706 0.00500488 27.156V8.29094C0.00500488 3.95094 3.72212 0.398438 8.30411 0.398438H18.1305C18.609 0.398438 18.977 0.765938 18.977 1.20344V6.83844C18.977 10.0409 21.7556 12.6659 25.1231 12.6834C25.9097 12.6834 26.6031 12.689 27.21 12.6938C27.6821 12.6976 28.1018 12.7009 28.4722 12.7009C28.7342 12.7009 29.0737 12.6973 29.441 12.6933ZM29.9484 10.1389C28.4358 10.1442 26.6527 10.1389 25.3701 10.1267C23.3349 10.1267 21.6585 8.53243 21.6585 6.59693V1.98393C21.6585 1.22968 22.6209 0.855184 23.1711 1.39943C24.168 2.38523 25.5384 3.74069 26.9021 5.08955C28.2595 6.43213 29.6102 7.76818 30.5795 8.72668C31.1169 9.25693 30.7231 10.1372 29.9484 10.1389Z" fill="#7E9BFF"/>
</svg>
