<svg width="39" height="35" viewBox="0 0 39 35" fill="none" xmlns="http://www.w3.org/2000/svg">
<path fill-rule="evenodd" clip-rule="evenodd" d="M19.4408 35C9.18156 35 0.855225 27.1775 0.855225 17.5C0.855225 7.84 9.18156 0 19.4408 0C29.7186 0 38.0264 7.84 38.0264 17.5C38.0264 27.1775 29.7186 35 19.4408 35ZM25.3696 23.9924C25.5927 24.1149 25.8343 24.1849 26.0945 24.1849C26.5591 24.1849 27.0237 23.9574 27.2839 23.5374C27.6742 22.9249 27.4698 22.1199 26.8007 21.7349L20.1843 18.0249V9.93994C20.1843 9.20494 19.5524 8.62744 18.7903 8.62744C18.0283 8.62744 17.3964 9.20494 17.3964 9.93994V18.7774C17.3964 19.2324 17.6566 19.6524 18.0841 19.8974L25.3696 23.9924Z" fill="#7E9BFF"/>
</svg>
