<svg width="42" height="40" viewBox="0 0 42 40" fill="none" xmlns="http://www.w3.org/2000/svg">
<g clip-path="url(#clip0)">
<path d="M41.0207 6.50404C40.8796 6.13638 40.5486 5.86204 40.1433 5.77702C39.7378 5.69199 39.3147 5.80795 39.0211 6.08434L36.5059 8.45269H34.9936L33.5308 7.07535V5.65139L36.046 3.28312C36.3396 3.00665 36.4627 2.60805 36.3724 2.22644C36.2821 1.84484 35.9907 1.53317 35.6003 1.4003C32.3177 0.283513 28.6031 1.06235 26.1364 3.38506C24.1661 5.24022 23.2255 7.82874 23.5541 10.4126L10.2409 22.9481C7.49656 22.6389 4.74747 23.5246 2.7773 25.3797C0.310753 27.7023 -0.516636 31.2 0.66959 34.2908C0.810698 34.6585 1.14162 34.9329 1.54698 35.0179C1.9521 35.1027 2.37558 34.987 2.66921 34.7105L5.18438 32.3422H6.6966L8.15945 33.7195V35.1435L5.64428 37.5118C5.35065 37.7882 5.22751 38.1868 5.31789 38.5685C5.40826 38.9501 5.69946 39.2617 6.09001 39.3946C7.08497 39.7331 8.11948 39.8975 9.14705 39.8975C11.5096 39.8974 13.835 39.0285 15.554 37.4099C17.5243 35.5547 18.4648 32.9662 18.1363 30.3824L31.4494 17.8468C34.1931 18.1552 36.9429 17.2702 38.9128 15.4152C41.3794 13.0928 42.2068 9.59492 41.0207 6.50404Z" fill="#7E9BFF"/>
</g>
<defs>
<clipPath id="clip0">
<rect width="41.4193" height="39" fill="white" transform="translate(0.135498 0.897949)"/>
</clipPath>
</defs>
</svg>
